<svg width="72" height="72" viewBox="0 0 72 72" fill="none" xmlns="http://www.w3.org/2000/svg">
<rect width="72" height="72" rx="26.7692" fill="white"/>
<path d="M23.1582 37.5698C26.0296 37.9111 28.7026 39.2084 30.7473 41.253C32.7919 43.2977 34.0892 45.9707 34.4305 48.8421C35.8539 48.0215 37.0445 46.8514 37.8898 45.4426C38.7351 44.0337 39.2072 42.4326 39.2614 40.7905C41.9654 39.8393 44.3265 38.1077 46.0463 35.8146C47.7661 33.5215 48.7673 30.77 48.9234 27.9079C48.9234 26.6266 48.4144 25.3978 47.5084 24.4919C46.6024 23.5859 45.3737 23.0769 44.0924 23.0769C41.2303 23.233 38.4788 24.2342 36.1857 25.954C33.8926 27.6738 32.161 30.0349 31.2098 32.7388C29.5677 32.7931 27.9666 33.2652 26.5577 34.1105C25.1488 34.9558 23.9788 36.1464 23.1582 37.5698Z" stroke="#6C749D" stroke-width="1.84615" stroke-linecap="round" stroke-linejoin="round"/>
<path d="M27.9891 39.18C26.3131 40.1262 24.9579 41.5513 24.0972 43.2728C23.2365 44.9942 22.9095 46.9335 23.1581 48.842C25.0666 49.0906 27.0059 48.7636 28.7273 47.9029C30.4487 47.0422 31.8739 45.687 32.8201 44.011M39.2614 31.1284C39.2614 31.5555 39.431 31.9651 39.733 32.2671C40.035 32.5691 40.4446 32.7387 40.8717 32.7387C41.2988 32.7387 41.7084 32.5691 42.0104 32.2671C42.3123 31.9651 42.482 31.5555 42.482 31.1284C42.482 30.7013 42.3123 30.2917 42.0104 29.9897C41.7084 29.6877 41.2988 29.5181 40.8717 29.5181C40.4446 29.5181 40.035 29.6877 39.733 29.9897C39.431 30.2917 39.2614 30.7013 39.2614 31.1284Z" stroke="#6C749D" stroke-width="1.84615" stroke-linecap="round" stroke-linejoin="round"/>
</svg>
