<svg width="72" height="72" viewBox="0 0 72 72" fill="none" xmlns="http://www.w3.org/2000/svg">
<rect width="72" height="72" rx="26.7692" fill="white"/>
<path d="M51.2271 33.4652C50.7003 32.8094 49.969 32.349 49.1497 32.1572C48.2393 31.9163 47.2721 32.0171 46.4309 32.4405C45.8498 32.7417 45.2858 33.0748 44.7415 33.4383V24.9745C44.7618 24.461 44.6784 23.9487 44.4961 23.4682C44.3139 22.9878 44.0366 22.5489 43.6809 22.1779C43.3251 21.8069 42.8982 21.5114 42.4256 21.309C41.953 21.1066 41.4444 21.0015 40.9303 21C39.8999 21.0303 38.9227 21.4638 38.2091 22.2072C37.4954 22.9506 37.1025 23.9443 37.1149 24.9745V26.6794C36.7947 26.6016 36.4667 26.5607 36.1372 26.5574C35.8869 26.5574 35.6375 26.5781 35.3913 26.6205L35.3096 26.6329C35.0903 26.6743 34.8751 26.7363 34.6682 26.8159C34.6278 26.8314 34.5906 26.85 34.5513 26.8676C34.375 26.9423 34.2062 27.0337 34.0474 27.1406C34.0061 27.1675 33.9678 27.1995 33.9285 27.2285C33.7764 27.3401 33.6357 27.4663 33.5084 27.6058C33.495 27.6203 33.4784 27.6296 33.465 27.6451C33.4329 27.6813 33.4133 27.7237 33.3833 27.7609C33.1975 27.9964 33.0424 28.2546 32.9218 28.5292C32.1993 28.2243 31.3982 28.1584 30.6355 28.341C30.5486 28.3606 30.4679 28.3937 30.3841 28.4196L30.2486 28.4609C30.1787 27.6068 29.8154 26.8031 29.2202 26.1862C28.8755 25.8469 28.4668 25.5794 28.0179 25.3991C27.569 25.2188 27.0887 25.1293 26.6049 25.1358C25.6262 25.1703 24.7001 25.5875 24.026 26.2975C23.3519 27.0076 22.9837 27.9537 23.0006 28.9324C23.0006 29.6396 23.0202 32.758 23.0409 35.6861L23.0688 39.6337C23.0688 40.161 23.075 40.5983 23.0781 40.9023V41.379C23.0325 42.8598 23.3102 44.3329 23.8919 45.6956C24.4736 47.0584 25.3454 48.2781 26.4466 49.27C28.6037 51.0862 31.3485 52.0557 34.1685 51.9975C35.6808 51.9758 37.1737 51.6525 38.5593 51.0465C39.945 50.4406 41.1957 49.5641 42.2379 48.4687C43.4102 47.1611 44.4212 45.7178 45.2495 44.1696C45.595 43.5182 45.9933 42.8947 46.4403 42.3085C47.551 41.1127 48.7966 40.0496 50.1522 39.1405C50.3033 39.0371 50.4491 38.9275 50.5846 38.8303C50.971 38.5317 51.2927 38.1578 51.5301 37.7313C51.7675 37.3047 51.9157 36.8344 51.9658 36.3488C52.1002 35.3284 51.8356 34.2955 51.2271 33.4652ZM34.5419 30.9992C34.5409 30.7614 34.5523 30.5247 34.5771 30.2889C34.5771 30.2362 34.5926 30.1938 34.5988 30.1442C34.6164 30.018 34.6371 29.8991 34.662 29.7926C34.6962 29.6479 34.7429 29.5064 34.8016 29.3697C34.8182 29.3325 34.8347 29.2912 34.8523 29.2581C34.9009 29.163 34.962 29.0751 35.0334 28.9955L35.0499 28.9799C35.1033 28.9258 35.1631 28.8782 35.2279 28.8383C35.2909 28.7966 35.3586 28.7622 35.4296 28.7359C35.5165 28.7029 35.6065 28.678 35.6986 28.6615H35.7213C35.8582 28.6395 35.9966 28.6288 36.1351 28.6294C36.3382 28.6139 36.542 28.6449 36.7312 28.7202C36.9204 28.7955 37.0898 28.913 37.2266 29.0637C37.6187 29.6303 37.7956 30.3179 37.7273 31.0034V34.131C37.7273 36.5091 36.5293 36.5091 36.1351 36.5091C35.261 36.5091 34.8678 36.3499 34.6868 35.805C34.6744 35.7678 34.6609 35.7316 34.6516 35.6913C34.6263 35.5891 34.6073 35.4855 34.5947 35.3811C34.5947 35.3521 34.5864 35.3252 34.5833 35.2942C34.5669 35.1361 34.5562 34.9775 34.5513 34.8186V34.7835C34.5451 34.587 34.543 34.3699 34.543 34.131L34.5419 30.9992ZM32.4873 30.6229C32.4873 30.748 32.4729 30.8669 32.4729 30.9992V34.4909C32.4633 35.0262 32.5108 35.561 32.6146 36.0862C32.3658 36.2962 32.0635 36.433 31.7415 36.4813C31.4194 36.5297 31.0903 36.4878 30.7907 36.3602C30.4638 36.2231 30.185 35.9924 29.9892 35.697C29.7935 35.4017 29.6897 35.055 29.691 34.7007V32.1045C29.691 31.8514 29.7448 31.6012 29.8488 31.3704C29.9528 31.1396 30.1045 30.9334 30.2941 30.7656C30.3864 30.6797 30.4893 30.6061 30.6003 30.5464C30.6438 30.5216 30.6862 30.4957 30.7317 30.474C30.8072 30.4404 30.8849 30.4124 30.9645 30.3902C31.0059 30.3747 31.0473 30.3623 31.0897 30.351C31.3283 30.2951 31.5761 30.2905 31.8166 30.3374C32.0572 30.3842 32.2851 30.4816 32.4853 30.6229H32.4873ZM48.9511 37.4634V37.4603C47.465 38.4615 46.1005 39.6322 44.8853 40.9488C44.3474 41.6333 43.8715 42.3643 43.4618 43.1325C42.7153 44.5371 41.804 45.8477 40.7472 47.0367C39.8981 47.9316 38.8792 48.6486 37.7498 49.1457C36.6205 49.6427 35.4033 49.9099 34.1695 49.9317C31.8531 49.9893 29.5948 49.2033 27.8153 47.7201C26.9333 46.9207 26.2375 45.9376 25.777 44.8402C25.3165 43.7427 25.1026 42.5577 25.1503 41.3686V40.894C25.1503 40.589 25.1441 40.1527 25.141 39.6244L25.1131 35.6778C25.0924 32.7414 25.0728 29.6365 25.0728 28.9386C25.055 28.5077 25.2045 28.0867 25.49 27.7634C25.7755 27.4401 26.1749 27.2395 26.6049 27.2036C26.8163 27.1959 27.027 27.2305 27.2248 27.3055C27.4225 27.3804 27.6033 27.4941 27.7564 27.64C27.9168 27.8131 28.0407 28.0168 28.1207 28.2388C28.2007 28.4609 28.2351 28.6968 28.2219 28.9324V30.0532C27.8327 30.6668 27.6254 31.378 27.6239 32.1045V34.71C27.6257 35.2771 27.753 35.8367 27.9966 36.3488C28.2402 36.861 28.5941 37.3129 29.033 37.6723C29.0268 37.7037 29.0227 37.7355 29.0206 37.7674C29.0402 38.0408 29.1676 38.2951 29.3748 38.4747C29.5819 38.6542 29.8519 38.7442 30.1255 38.7248C31.8172 38.5913 33.5151 38.5509 35.2113 38.6039C35.8786 38.6318 36.5231 38.6845 37.1304 38.761C37.0631 38.791 37.0011 38.8158 36.9328 38.8479C34.4995 39.9278 32.3848 41.6147 30.7917 43.7467C30.7124 43.857 30.6557 43.9818 30.6247 44.1141C30.5937 44.2463 30.5891 44.3834 30.6111 44.5174C30.6555 44.7881 30.8057 45.0301 31.0286 45.1901C31.2516 45.3501 31.529 45.415 31.7998 45.3706C32.0707 45.3262 32.3128 45.1761 32.4729 44.9533C33.8563 43.1118 35.6893 41.6558 37.7966 40.7245C38.5024 40.3976 39.2305 40.1212 39.9754 39.8973C40.2485 39.8156 40.4658 39.7598 40.6116 39.7247L40.773 39.6874L40.8103 39.6792H40.8165C41.0252 39.6386 41.2164 39.5348 41.364 39.3818C41.5115 39.2289 41.6084 39.0341 41.6413 38.8242C41.6742 38.6142 41.6416 38.3992 41.5478 38.2085C41.4541 38.0177 41.3039 37.8605 41.1175 37.7581C40.4681 37.4182 39.7765 37.1654 39.0608 37.0064C39.5728 36.1368 39.8265 35.1395 39.7923 34.131V30.9992C39.8309 30.0479 39.619 29.1031 39.1777 28.2593V24.9745C39.1674 24.4921 39.344 24.0245 39.6706 23.6692C39.9972 23.3139 40.4485 23.0984 40.9303 23.0679C41.1732 23.0689 41.4133 23.1201 41.6354 23.2184C41.8575 23.3168 42.0568 23.46 42.2208 23.6391C42.3847 23.8182 42.5098 24.0294 42.5881 24.2592C42.6663 24.489 42.6961 24.7326 42.6755 24.9745V34.7969C42.6569 35.1929 42.7852 35.5806 43.0356 35.8877C43.1904 36.0595 43.3906 36.184 43.6132 36.2469C43.8358 36.3099 44.0717 36.3086 44.2936 36.2434C44.4932 36.1844 44.6795 36.0904 44.845 35.9652C44.9009 35.9249 44.9484 35.8867 44.9795 35.8619L45.0209 35.8236L45.0322 35.8143C45.7544 35.2124 46.5451 34.6977 47.3879 34.281C47.7795 34.0903 48.2273 34.0494 48.6469 34.1662C49.008 34.2437 49.3339 34.434 49.578 34.71C49.8656 35.1112 49.9877 35.6075 49.9205 36.0966C49.9051 36.3015 49.8492 36.5014 49.756 36.6845C49.6628 36.8677 49.534 37.0305 49.3773 37.1636L48.9511 37.4634Z" fill="#00D8FF"/>
</svg>
