<svg width="72" height="72" viewBox="0 0 72 72" fill="none" xmlns="http://www.w3.org/2000/svg">
<rect width="72" height="72" rx="26.7692" fill="white"/>
<path fill-rule="evenodd" clip-rule="evenodd" d="M36 53.2857C32.8174 53.2857 29.7652 52.0214 27.5147 49.771C25.2643 47.5206 24 44.4683 24 41.2857C24 38.1031 25.2643 35.0509 27.5147 32.8004C29.7652 30.55 32.8174 29.2857 36 29.2857C39.1826 29.2857 42.2348 30.55 44.4853 32.8004C46.7357 35.0509 48 38.1031 48 41.2857C48 44.4683 46.7357 47.5206 44.4853 49.771C42.2348 52.0214 39.1826 53.2857 36 53.2857ZM36 49.8571C38.2733 49.8571 40.4535 48.9541 42.0609 47.3466C43.6684 45.7392 44.5714 43.559 44.5714 41.2857C44.5714 39.0124 43.6684 36.8323 42.0609 35.2248C40.4535 33.6173 38.2733 32.7143 36 32.7143C33.7267 32.7143 31.5465 33.6173 29.9391 35.2248C28.3316 36.8323 27.4286 39.0124 27.4286 41.2857C27.4286 43.559 28.3316 45.7392 29.9391 47.3466C31.5465 48.9541 33.7267 49.8571 36 49.8571ZM36 29.2857C35.5453 29.2857 35.1093 29.1051 34.7878 28.7836C34.4663 28.4621 34.2857 28.0261 34.2857 27.5714C34.2857 27.1168 34.4663 26.6807 34.7878 26.3592C35.1093 26.0378 35.5453 25.8571 36 25.8571C36.4547 25.8571 36.8907 26.0378 37.2122 26.3592C37.5337 26.6807 37.7143 27.1168 37.7143 27.5714C37.7143 28.0261 37.5337 28.4621 37.2122 28.7836C36.8907 29.1051 36.4547 29.2857 36 29.2857ZM30.8571 19H34.2857V25.8571C32.4 25.8571 30.8571 24.3143 30.8571 22.4286V19ZM37.7143 19H41.1429V22.4286C41.1429 24.3143 39.6 25.8571 37.7143 25.8571V19Z" fill="#5E59EE"/>
</svg>
