<svg width="48" height="41" viewBox="0 0 48 41" fill="none" xmlns="http://www.w3.org/2000/svg">
<path d="M23 10.8074V11.7016L23.8887 11.8012C36.8567 13.2541 46.9648 24.3587 46.9999 37.8921C43.9534 34.0637 40.528 31.6739 36.9497 30.1969C32.6539 28.4237 28.1928 27.9893 24.025 27.885L23 27.8594V28.8847V36.4442V36.4444C23.0001 36.7135 22.9477 36.9797 22.8462 37.2276C22.7447 37.4755 22.5963 37.7 22.4099 37.8884L22.4075 37.8908C22.2219 38.0798 22.0019 38.2291 21.7605 38.3308C21.5191 38.4324 21.2607 38.4846 21 38.4846C20.7393 38.4846 20.4809 38.4324 20.2395 38.3308C19.9981 38.2291 19.7781 38.0798 19.5925 37.8908L19.5925 37.8908L19.5856 37.8839L1.41518 19.7397L19.5857 1.59253L19.5886 1.58952C19.8698 1.30636 20.2259 1.11518 20.6115 1.03815C20.997 0.961124 21.3966 1.00124 21.7603 1.15398C22.1242 1.30678 22.4373 1.56605 22.6587 1.90103C22.8799 2.23585 22.9991 2.63071 23 3.03586C23 3.0362 23 3.03655 23 3.03689L23 10.8074Z" stroke="white" stroke-width="2"/>
</svg>
